<?xml version="1.0" encoding="utf-8"?>
<!-- Generator: Adobe Illustrator 17.0.0, SVG Export Plug-In . SVG Version: 6.00 Build 0)  -->
<!DOCTYPE svg PUBLIC "-//W3C//DTD SVG 1.1//EN" "http://www.w3.org/Graphics/SVG/1.1/DTD/svg11.dtd">
<svg version="1.1" id="图层_1" xmlns="http://www.w3.org/2000/svg" xmlns:xlink="http://www.w3.org/1999/xlink" x="0px" y="0px"
	 width="192px" height="192px" viewBox="0 0 192 192" enable-background="new 0 0 192 192" xml:space="preserve">
<g>
	<path fill="#FFFFFF" d="M138.555,140.723h-10.277V65.891c0-2.834-2.306-5.139-5.139-5.139H68.861c-2.833,0-5.139,2.305-5.139,5.139
		v74.832H53.445V65.891c0-8.501,6.915-15.416,15.416-15.416h54.277c8.501,0,15.416,6.915,15.416,15.416L138.555,140.723
		L138.555,140.723z"/>
	<rect x="41.359" y="140.723" fill="#FFFFFF" width="109.283" height="10.277"/>
	<rect x="102.102" y="117.599" fill="#FFFFFF" width="15.416" height="23.124"/>
	<g>
		<rect x="102.316" y="94.434" fill="#FFFFFF" width="15.416" height="15.416"/>
		<rect x="74.696" y="94.434" fill="#FFFFFF" width="15.416" height="15.416"/>
	</g>
	<g>
		<rect x="102.102" y="67.416" fill="#FFFFFF" width="15.416" height="15.416"/>
		<rect x="74.482" y="67.416" fill="#FFFFFF" width="15.416" height="15.416"/>
	</g>
	<rect x="74.963" y="41" fill="#FFFFFF" width="42.073" height="10.277"/>
</g>
</svg>
