<?xml version="1.0" encoding="utf-8"?>
<!-- Generator: Adobe Illustrator 17.0.0, SVG Export Plug-In . SVG Version: 6.00 Build 0)  -->
<!DOCTYPE svg PUBLIC "-//W3C//DTD SVG 1.1//EN" "http://www.w3.org/Graphics/SVG/1.1/DTD/svg11.dtd">
<svg version="1.1" id="图层_1" xmlns="http://www.w3.org/2000/svg" xmlns:xlink="http://www.w3.org/1999/xlink" x="0px" y="0px"
	 width="192px" height="192px" viewBox="0 0 192 192" enable-background="new 0 0 192 192" xml:space="preserve">
<g>
	<path fill="#FFFFFF" d="M97.903,109.07c-0.089-17.439-14.304-31.6-31.764-31.6c-17.515,0-31.765,14.25-31.765,31.765
		S48.623,141,66.138,141h10.588v-10.588H66.138c-9.616,0-17.741-6.448-20.315-15.243l41.491-0.186v0.004l10.588-0.046
		C97.903,114.941,97.904,109.336,97.903,109.07z M66.138,88.059c10.01,0,18.406,6.988,20.602,16.338l-41.247,0.185
		C47.622,95.139,56.062,88.059,66.138,88.059z"/>
	<path fill="#FFFFFF" d="M130.943,77.665c-3.624-6.834-10.738-11.217-18.692-11.217c-1.066,0-2.122,0.08-3.165,0.238
		C103.445,57.025,93.134,51,81.685,51c-13.377,0-25.396,8.457-29.909,21.044h11.658c3.755-6.374,10.67-10.456,18.25-10.456
		c8.701,0,16.417,5.222,19.659,13.304l1.982,4.943l4.931-2.011c1.28-0.522,2.623-0.787,3.994-0.787
		c4.616,0,8.667,2.953,10.078,7.349l1.18,3.675l3.985-0.001c11.64,0.043,21.096,9.526,21.096,21.176
		c0,11.677-9.5,21.176-21.176,21.176H85.197V141h42.217c17.515,0,31.765-14.25,31.765-31.765
		C159.179,92.912,146.804,79.425,130.943,77.665z"/>
</g>
</svg>
